name Walk4.mot
datacolumns 19
datarows 25
range 2.48700000 2.51100000
endheader

                time	   L_ground_force_vx	   L_ground_force_vy	   L_ground_force_vz	   L_ground_force_px	   L_ground_force_py	   L_ground_force_pz	   R_ground_force_vx	   R_ground_force_vy	   R_ground_force_vz	   R_ground_force_px	   R_ground_force_py	   R_ground_force_pz	   L_ground_torque_x	   L_ground_torque_y	   L_ground_torque_z	   R_ground_torque_x	   R_ground_torque_y	   R_ground_torque_z	
          2.48700000	          0.00000000	          0.00000000	          0.00000000	          0.00000000	          0.00000000	          0.00000000	         26.49176612	        101.93043734	         25.79453100	          0.56256504	          0.00000000	          0.10886131	          0.00000000	          0.00000000	          0.00000000	          0.00000000	         -7.10246266	          0.00000000	
          2.48800000	          0.00000000	          0.00000000	          0.00000000	          0.00000000	          0.00000000	          0.00000000	         24.85430030	         96.12656102	         24.95660253	          0.56250106	          0.00000000	          0.10895591	          0.00000000	          0.00000000	          0.00000000	          0.00000000	         -6.76770209	          0.00000000	
          2.48900000	          0.00000000	          0.00000000	          0.00000000	          0.00000000	          0.00000000	          0.00000000	         23.23891018	         90.55843640	         24.09992430	          0.56237152	          0.00000000	          0.10903078	          0.00000000	          0.00000000	          0.00000000	          0.00000000	         -6.44756512	          0.00000000	
          2.49000000	          0.00000000	          0.00000000	          0.00000000	          0.00000000	          0.00000000	          0.00000000	         21.66101350	         85.22017223	         23.22421893	          0.56258113	          0.00000000	          0.10897084	          0.00000000	          0.00000000	          0.00000000	          0.00000000	         -6.11712004	          0.00000000	
          2.49100000	          0.00000000	          0.00000000	          0.00000000	          0.00000000	          0.00000000	          0.00000000	         20.12086738	         80.13146739	         22.31910459	          0.56334720	          0.00000000	          0.10880422	          0.00000000	          0.00000000	          0.00000000	          0.00000000	         -5.76347730	          0.00000000	
          2.49200000	          0.00000000	          0.00000000	          0.00000000	          0.00000000	          0.00000000	          0.00000000	         18.60120207	         75.33877707	         21.37502618	          0.56457420	          0.00000000	          0.10874479	          0.00000000	          0.00000000	          0.00000000	          0.00000000	         -5.39361386	          0.00000000	
          2.49300000	          0.00000000	          0.00000000	          0.00000000	          0.00000000	          0.00000000	          0.00000000	         17.07665327	         70.89102208	         20.38878806	          0.56602519	          0.00000000	          0.10897478	          0.00000000	          0.00000000	          0.00000000	          0.00000000	         -5.02580595	          0.00000000	
          2.49400000	          0.00000000	          0.00000000	          0.00000000	          0.00000000	          0.00000000	          0.00000000	         15.52440955	         66.79424709	         19.36122933	          0.56762557	          0.00000000	          0.10953719	          0.00000000	          0.00000000	          0.00000000	          0.00000000	         -4.67571931	          0.00000000	
          2.49500000	          0.00000000	          0.00000000	          0.00000000	          0.00000000	          0.00000000	          0.00000000	         13.94235169	         62.98940085	         18.30289306	          0.56946716	          0.00000000	          0.11045358	          0.00000000	          0.00000000	          0.00000000	          0.00000000	         -4.34870104	          0.00000000	
          2.49600000	          0.00000000	          0.00000000	          0.00000000	          0.00000000	          0.00000000	          0.00000000	         12.36019662	         59.38463350	         17.23150156	          0.57147101	          0.00000000	          0.11172061	          0.00000000	          0.00000000	          0.00000000	          0.00000000	         -4.04220409	          0.00000000	
          2.49700000	          0.00000000	          0.00000000	          0.00000000	          0.00000000	          0.00000000	          0.00000000	         10.81972758	         55.89913228	         16.15503054	          0.57323164	          0.00000000	          0.11320966	          0.00000000	          0.00000000	          0.00000000	          0.00000000	         -3.75351018	          0.00000000	
          2.49800000	          0.00000000	          0.00000000	          0.00000000	          0.00000000	          0.00000000	          0.00000000	          9.34803576	         52.48551188	         15.07119956	          0.57430841	          0.00000000	          0.11468908	          0.00000000	          0.00000000	          0.00000000	          0.00000000	         -3.48143923	          0.00000000	
          2.49900000	          0.00000000	          0.00000000	          0.00000000	          0.00000000	          0.00000000	          0.00000000	          7.95532781	         49.14216637	         13.98338848	          0.57464878	          0.00000000	          0.11593543	          0.00000000	          0.00000000	          0.00000000	          0.00000000	         -3.22094576	          0.00000000	
          2.50000000	          0.00000000	          0.00000000	          0.00000000	          0.00000000	          0.00000000	          0.00000000	          6.64128852	         45.90890731	         12.90684058	          0.57475359	          0.00000000	          0.11679687	          0.00000000	          0.00000000	          0.00000000	          0.00000000	         -2.96075965	          0.00000000	
          2.50100000	          0.00000000	          0.00000000	          0.00000000	          0.00000000	          0.00000000	          0.00000000	          5.39666830	         42.84481285	         11.86583767	          0.57552093	          0.00000000	          0.11718686	          0.00000000	          0.00000000	          0.00000000	          0.00000000	         -2.68922460	          0.00000000	
          2.50200000	          0.00000000	          0.00000000	          0.00000000	          0.00000000	          0.00000000	          0.00000000	          4.21006613	         39.99803431	         10.88854875	          0.57783854	          0.00000000	          0.11711210	          0.00000000	          0.00000000	          0.00000000	          0.00000000	         -2.40282359	          0.00000000	
          2.50300000	          0.00000000	          0.00000000	          0.00000000	          0.00000000	          0.00000000	          0.00000000	          3.07088609	         37.37636144	          9.99526695	          0.58196142	          0.00000000	          0.11676022	          0.00000000	          0.00000000	          0.00000000	          0.00000000	         -2.10907507	          0.00000000	
          2.50400000	          0.00000000	          0.00000000	          0.00000000	          0.00000000	          0.00000000	          0.00000000	          1.96838926	         34.93705125	          9.18204582	          0.58723048	          0.00000000	          0.11649798	          0.00000000	          0.00000000	          0.00000000	          0.00000000	         -1.82184779	          0.00000000	
          2.50500000	          0.00000000	          0.00000000	          0.00000000	          0.00000000	          0.00000000	          0.00000000	          0.90524712	         32.60328709	          8.41405266	          0.59274900	          0.00000000	          0.11662702	          0.00000000	          0.00000000	          0.00000000	          0.00000000	         -1.55394484	          0.00000000	
          2.50600000	          0.00000000	          0.00000000	          0.00000000	          0.00000000	          0.00000000	          0.00000000	         -0.09198673	         30.29156782	          7.64134725	          0.59818024	          0.00000000	          0.11714409	          0.00000000	          0.00000000	          0.00000000	          0.00000000	         -1.31238802	          0.00000000	
          2.50700000	          0.00000000	          0.00000000	          0.00000000	          0.00000000	          0.00000000	          0.00000000	         -0.97830732	         27.89579920	          6.82035647	          0.60350977	          0.00000000	          0.11781295	          0.00000000	          0.00000000	          0.00000000	          0.00000000	         -1.09775495	          0.00000000	
          2.50800000	          0.00000000	          0.00000000	          0.00000000	          0.00000000	          0.00000000	          0.00000000	         -1.68837275	         25.22417304	          5.91642255	          0.60836218	          0.00000000	          0.11832362	          0.00000000	          0.00000000	          0.00000000	          0.00000000	         -0.90639308	          0.00000000	
          2.50900000	          0.00000000	          0.00000000	          0.00000000	          0.00000000	          0.00000000	          0.00000000	         -2.13403485	         21.98892977	          4.90265471	          0.61194876	          0.00000000	          0.11848549	          0.00000000	          0.00000000	          0.00000000	          0.00000000	         -0.73214189	          0.00000000	
          2.51000000	          0.00000000	          0.00000000	          0.00000000	          0.00000000	          0.00000000	          0.00000000	         -2.22902438	         17.93253750	          3.77912273	          0.61365962	          0.00000000	          0.11847619	          0.00000000	          0.00000000	          0.00000000	          0.00000000	         -0.56535890	          0.00000000	
          2.51100000	          0.00000000	          0.00000000	          0.00000000	          0.00000000	          0.00000000	          0.00000000	         -1.95278901	         13.11945375	          2.60721567	          0.61362213	          0.00000000	          0.11867124	          0.00000000	          0.00000000	          0.00000000	          0.00000000	         -0.39881762	          0.00000000	
